<?xml version="1.0" encoding="UTF-8"?>
<svg id="Camada_2" xmlns="http://www.w3.org/2000/svg" xmlns:xlink="http://www.w3.org/1999/xlink" viewBox="0 0 137.66 137.66">
  <defs>
    <style>
      .cls-1 {
        fill: #efbbaf;
      }

      .cls-2 {
        fill: #294092;
      }

      .cls-3 {
        fill: #fce1d0;
      }

      .cls-4 {
        stroke: #2e3e52;
        stroke-linecap: round;
        stroke-miterlimit: 10;
        stroke-width: 1.26px;
      }

      .cls-4, .cls-5 {
        fill: none;
      }

      .cls-6 {
        fill: #fff;
      }

      .cls-7 {
        fill: #9cb7e0;
      }

      .cls-8 {
        fill: #c2b3d7;
      }

      .cls-9 {
        fill: #2c3c52;
      }

      .cls-10 {
        fill: #7ccabf;
      }

      .cls-11 {
        fill: #8380b9;
      }

      .cls-12 {
        fill: #8bbcfc;
        opacity: .43;
      }

      .cls-13 {
        fill: #efc825;
      }

      .cls-14 {
        clip-path: url(#clippath);
      }
    </style>
    <clipPath id="clippath">
      <circle class="cls-5" cx="68.42" cy="68.83" r="61.86" transform="translate(-10.85 124.82) rotate(-80.4)"/>
    </clipPath>
  </defs>
  <g id="OBJECTS">
    <g>
      <g>
        <circle class="cls-13" cx="68.83" cy="68.83" r="68.83" transform="translate(-28.51 68.83) rotate(-45)"/>
        <circle class="cls-2" cx="68.83" cy="68.83" r="61.86" transform="translate(-13.66 120.51) rotate(-77.07)"/>
      </g>
      <g class="cls-14">
        <g>
          <ellipse class="cls-8" cx="70.09" cy="144.07" rx="49.51" ry="38"/>
          <path class="cls-3" d="M85.31,95.25l-3.77,13.84c.64.02-10.04,5.78-23.7,0l-3.52-9,30.98-4.84Z"/>
          <path class="cls-1" d="M56.02,104.42l-1.7-4.34,30.36-3.19-2.68,10.48c-9,1.18-17.74-.05-25.99-2.95Z"/>
          <g>
            <path class="cls-10" d="M114.78,65.52c-1.76,22.59-23.71,39.3-49.03,37.33s-44.71-17.96-42.95-40.55c1.76-22.59,23.71-39.3,49.03-37.33,25.31,1.98,44.71,17.96,42.95,40.55Z"/>
            <path class="cls-3" d="M109.91,67.36c-1.67,21.37-21.44,37.26-44.16,35.49-22.72-1.77-40.07-16.82-38.41-38.19,1.67-21.37,21.44-37.26,44.16-35.49,22.72,1.77,40.07,16.81,38.41,38.19Z"/>
            <path class="cls-10" d="M55.96,22.14s-43.43-.33-34.21,43.1l7.32,1.26s7.35-3.89,13.73-11.95c9.54-12.06,7.25-20.89,7.25-20.89,0,0,17.57,24.31,34.44,14.29,8.23,11.9,14.14,15.04,20.49,14.98,2.89-.03,8.62-2.34,9.24-6.93.63-4.59-3.98-50.65-58.26-33.87Z"/>
            <path class="cls-10" d="M47.29,29.55s-5.26-10.2-2.96-11.51c2.3-1.32,6.91,6.58,6.91,6.58,0,0-.33-8.22,2.96-8.55,3.29-.33,3.62,8.55,3.62,8.55"/>
            <path class="cls-10" d="M50.05,53.81s-10.47,6.15-8.58,9.66c1.88,3.51,15.64-4.41,17.13-7.47,1.48-3.07-3.23-6.48-8.54-2.19Z"/>
            <path class="cls-10" d="M85.74,52.58s11.08,4.97,9.59,8.66c-1.49,3.69-16.03-2.67-17.84-5.55-1.81-2.88,2.5-6.79,8.25-3.11Z"/>
            <path class="cls-4" d="M80.11,73.41c-.85-4.23,1.23-8.22,4.63-8.9,3.41-.68,6.86,2.19,7.71,6.42"/>
            <path class="cls-6" d="M62.66,70.94c-.13,5.22-4.46,9.35-9.68,9.22-5.22-.13-9.35-4.46-9.22-9.68.13-5.22,4.46-9.35,9.68-9.22,5.22.13,9.35,4.46,9.22,9.68Z"/>
            <path class="cls-9" d="M58.63,67.77c2.68,5.72-3.04,11.17-8.62,8.21-.97-.51-1.76-1.34-2.23-2.34-2.68-5.72,3.04-11.17,8.62-8.21.97.51,1.76,1.34,2.23,2.34Z"/>
            <path class="cls-1" d="M57.94,82.93c-.17,2.23-3.74,4.38-7.9,4.06-4.16-.32-6.58-2.64-6.41-4.87.17-2.23,2.92-4.14,7.09-3.82,4.16.32,7.4,2.4,7.22,4.63Z"/>
            <path class="cls-1" d="M81.84,80.16c.42,2.2,4.2,3.94,8.3,3.16,4.1-.78,6.25-3.35,5.83-5.55-.42-2.2-3.36-3.8-7.47-3.01-4.1.78-7.09,3.2-6.67,5.4Z"/>
            <path class="cls-3" d="M29.07,66.5s-5.42-5.01-10.86-.85c-5.44,4.16-3.7,15.5,3.29,16.32,6.99.82,9.92-6.57,9.92-6.57l-2.36-8.9Z"/>
            <path class="cls-1" d="M25.4,69.28s-3.56-2.71-6.55-.42c-3,2.29-2.04,8.53,1.81,8.99,3.85.45,5.46-3.62,5.46-3.62l-.72-4.95Z"/>
            <path class="cls-3" d="M106.7,59.62s4.48-5.87,10.55-2.7c6.08,3.17,6.3,14.64-.44,16.65s-10.91-4.77-10.91-4.77l.79-9.18Z"/>
            <path class="cls-1" d="M109.78,62.09s2.46-3.22,5.79-1.48c3.33,1.74,3.46,8.03-.24,9.13-3.7,1.1-5.98-2.62-5.98-2.62l.43-5.04Z"/>
            <g>
              <path class="cls-6" d="M67.99,82.48c-2.61-.42-4.44-1.56-4.59-1.65-1.05-.67-1.4-2.25-.77-3.52.63-1.27,1.98-1.77,3.03-1.1.22.13,4.77,2.88,8.88-.31,1.05-.81,2.41-.51,3.04.68.63,1.19.3,2.81-.75,3.63-3.14,2.44-6.35,2.68-8.85,2.28Z"/>
              <path class="cls-12" d="M77.8,77.1c-.05-.18-.12-.36-.21-.53-.02-.03-.04-.06-.06-.09-6.27,5.34-13.49,2.01-15.03,1.2-.08.23-.13.47-.15.71.79.41,2.56,1.21,4.83,1.58,3.04.49,6.98.2,10.62-2.87Z"/>
            </g>
            <g>
              <path class="cls-7" d="M27.29,75.66c2.37,10.52,12.84,17.13,23.4,14.77,9.98-2.23,16.44-11.68,15.12-21.59.19-.05.38-.11.57-.15,1.97-.44,3.94-.51,5.84-.27.04,1.18.19,2.38.46,3.58,2.37,10.52,12.84,17.13,23.4,14.77,10.55-2.36,17.19-12.8,14.82-23.31-2.37-10.52-12.84-17.13-23.4-14.77-8.39,1.88-14.29,8.86-15.18,16.92-2.13-.25-4.34-.15-6.55.34-.18.04-.35.09-.52.13-2.8-9.91-12.93-16.01-23.13-13.73-10.55,2.36-17.19,12.8-14.82,23.31ZM75.43,71.38c-2.03-9,3.65-17.94,12.68-19.96,9.03-2.02,18,3.64,20.03,12.64,2.03,9-3.65,17.94-12.68,19.96-9.03,2.02-18-3.64-20.03-12.64ZM30.05,75.04c-2.03-9,3.65-17.94,12.68-19.96,9.03-2.02,18,3.64,20.03,12.64s-3.65,17.94-12.68,19.96c-9.03,2.02-18-3.64-20.03-12.64Z"/>
              <path class="cls-11" d="M28.06,74.45c2.37,10.52,12.84,17.13,23.4,14.77,9.98-2.23,16.44-11.68,15.12-21.59.19-.05.38-.11.57-.15,1.97-.44,3.94-.51,5.84-.27.04,1.18.19,2.38.46,3.58,2.37,10.52,12.84,17.13,23.4,14.77,10.55-2.36,17.19-12.8,14.82-23.31-2.37-10.52-12.84-17.13-23.4-14.77-8.39,1.88-14.29,8.86-15.18,16.92-2.13-.25-4.34-.15-6.55.34-.18.04-.35.09-.52.13-2.8-9.91-12.93-16.01-23.13-13.73-10.55,2.36-17.19,12.8-14.82,23.31ZM76.2,70.17c-2.03-9,3.65-17.94,12.68-19.96,9.03-2.02,18,3.64,20.03,12.64,2.03,9-3.65,17.94-12.68,19.96-9.03,2.02-18-3.64-20.03-12.64ZM30.81,73.84c-2.03-9,3.65-17.94,12.68-19.96,9.03-2.02,18,3.64,20.03,12.64,2.03,9-3.65,17.94-12.68,19.96-9.03,2.02-18-3.64-20.03-12.64Z"/>
            </g>
          </g>
        </g>
        <g>
          <path class="cls-9" d="M115.2,101.97l-4.07,1.15c-1.02.29-1.8,1.24-2,2.43l-.73,4.4c-.14.85-1.35.88-1.54.04l-.88-4.02c-.3-1.39-1.28-2.46-2.5-2.74l-3.82-.88c-.84-.19-.87-1.39-.04-1.62l3.78-1.07c1.2-.34,2.12-1.46,2.35-2.86l.68-4.06c.14-.85,1.35-.88,1.54-.04l.95,4.37c.26,1.18,1.08,2.08,2.11,2.32l4.13.95c.84.19.87,1.38.04,1.62Z"/>
          <path class="cls-9" d="M25.92,91.08l-3.02.85c-.76.21-1.34.92-1.48,1.8l-.54,3.26c-.11.63-1,.65-1.14.03l-.65-2.98c-.22-1.03-.95-1.83-1.85-2.03l-2.83-.65c-.63-.14-.65-1.03-.03-1.2l2.8-.79c.89-.25,1.57-1.08,1.74-2.12l.5-3.01c.1-.63,1-.65,1.14-.03l.71,3.24c.19.87.8,1.54,1.56,1.72l3.06.71c.63.14.65,1.03.03,1.2Z"/>
          <path class="cls-9" d="M123.96,88.07l-1.47.42c-.67.19-1.19.84-1.34,1.68l-.23,1.33c-.17.97-1.45.97-1.63,0l-.2-1.08c-.18-.98-.8-1.75-1.59-1.96l-1.28-.35c-.87-.23-.87-1.56,0-1.8l1.28-.36c.79-.22,1.4-.99,1.57-1.98l.19-1.09c.17-.97,1.45-.97,1.63,0l.25,1.34c.15.83.68,1.48,1.35,1.66l1.48.4c.87.23.87,1.56,0,1.8Z"/>
          <path class="cls-9" d="M119.44,44.7l-1.47.42c-.67.19-1.19.84-1.34,1.68l-.23,1.33c-.17.97-1.45.97-1.63,0l-.2-1.09c-.18-.98-.8-1.75-1.59-1.96l-1.28-.35c-.87-.23-.87-1.56,0-1.8l1.28-.36c.79-.22,1.4-.99,1.57-1.98l.19-1.09c.17-.97,1.45-.97,1.63,0l.25,1.34c.15.83.68,1.48,1.35,1.66l1.48.4c.87.23.87,1.56,0,1.8Z"/>
          <path class="cls-9" d="M35.02,104.21l-1.82.51c-.83.23-1.48,1.05-1.66,2.08l-.28,1.65c-.21,1.2-1.8,1.21-2.02.01l-.25-1.34c-.22-1.22-.99-2.17-1.98-2.43l-1.59-.43c-1.07-.29-1.08-1.93-.01-2.24l1.58-.45c.98-.28,1.74-1.23,1.95-2.45l.23-1.35c.21-1.2,1.8-1.21,2.02-.01l.3,1.66c.19,1.03.84,1.83,1.67,2.05l1.84.5c1.07.29,1.08,1.93.01,2.24Z"/>
        </g>
      </g>
    </g>
  </g>
</svg>