<?xml version="1.0" encoding="UTF-8"?>
<svg id="Camada_2" xmlns="http://www.w3.org/2000/svg" xmlns:xlink="http://www.w3.org/1999/xlink" viewBox="0 0 137.66 137.66">
  <defs>
    <style>
      .cls-1 {
        fill: #f1cead;
      }

      .cls-2 {
        fill: #fff;
      }

      .cls-3 {
        fill: #c2b3d7;
      }

      .cls-4 {
        fill: #2c3c52;
      }

      .cls-5 {
        fill: none;
      }

      .cls-6 {
        fill: #ea6868;
      }

      .cls-7 {
        fill: #f1cdb0;
      }

      .cls-8 {
        fill: #f6e1da;
      }

      .cls-9 {
        fill: #8bbcfc;
        opacity: .43;
      }

      .cls-10 {
        fill: #daa186;
      }

      .cls-11 {
        fill: #efc825;
      }

      .cls-12 {
        clip-path: url(#clippath);
      }
    </style>
    <clipPath id="clippath">
      <circle class="cls-5" cx="68.83" cy="67.28" r="61.86" transform="translate(-12.15 119.3) rotate(-77.07)"/>
    </clipPath>
  </defs>
  <g id="OBJECTS">
    <g>
      <g>
        <circle class="cls-3" cx="68.83" cy="68.83" r="68.83"/>
        <circle class="cls-6" cx="68.83" cy="68.83" r="61.86"/>
      </g>
      <g class="cls-12">
        <g>
          <ellipse class="cls-11" cx="70.03" cy="133.96" rx="48.31" ry="29.33"/>
          <path class="cls-8" d="M112.26,68.67c-1.88,20.61-22.88,35.45-46.91,33.14-24.03-2.31-42.31-17.3-40.43-37.91,1.88-20.61,22.88-35.45,46.91-33.14,24.03,2.31,42.31,17.3,40.43,37.91Z"/>
          <path class="cls-1" d="M55.25,98.54l3.18,11.98s9.79,4.96,20,0l2.97-7.79-26.15-4.19Z"/>
          <path class="cls-10" d="M79.97,106.49l1.43-3.76-25.63-2.76,2.26,9.08c7.59,1.02,14.97-.04,21.94-2.56Z"/>
          <path class="cls-7" d="M109.65,69.32c-1.96,21.54-21.64,37.26-43.95,35.11-22.31-2.14-39.14-17.59-37.18-39.12,1.96-21.54,21.64-37.26,43.95-35.11,22.31,2.14,39.14,17.59,37.18,39.12Z"/>
          <path class="cls-8" d="M38.39,30.88s-4.44,27.92-9.33,35.31c-.39.59-2.3-1.02-2.78-.95-1.62.23-3.03-1.15-2.96-2.83,1.7-39.61,34.12-39.9,39.09-39.71.43.02.86-.09,1.25-.28,9.05-4.43,33.29-4.21,40.4,5.54,9.65,13.24,8.34,21.06,7.22,33.32,0,0-20.98-5.97-33.36-31.1"/>
          <path class="cls-8" d="M29.06,66.19s18.38-8.28,27.41-24.68c0,0,18.06,9.62,39.95,4.63,21.88-4.99-4.07-42.9-32.65-32.79-19.97,7.06-44.46,9.27-40.29,50.62"/>
          <path class="cls-8" d="M48.73,52.91s-10.38,6.04-8.59,9.61c1.8,3.57,15.44-4.2,16.95-7.27s-3.08-6.58-8.37-2.34Z"/>
          <path class="cls-8" d="M84.95,49.35s11.38,3.7,10.34,7.58c-1.04,3.87-15.96-.83-18.05-3.51-2.09-2.68,1.68-7.09,7.71-4.07Z"/>
          <path class="cls-2" d="M63.13,70.09c-.2,5.26-4.53,9.36-9.66,9.15-5.13-.21-9.12-4.65-8.92-9.91.2-5.27,4.53-9.36,9.66-9.15,5.13.21,9.12,4.65,8.92,9.91Z"/>
          <path class="cls-4" d="M59.22,66.83c2.55,5.81-3.16,11.22-8.6,8.15-.95-.53-1.71-1.38-2.15-2.39-2.55-5.81,3.16-11.22,8.6-8.15.95.53,1.71,1.38,2.15,2.39Z"/>
          <path class="cls-10" d="M59.86,81.28c-.21,2.25-3.74,4.36-7.83,3.97-4.09-.39-6.43-2.76-6.23-5.02.21-2.25,2.94-4.14,7.03-3.74,4.09.39,7.24,2.54,7.03,4.79Z"/>
          <path class="cls-2" d="M75.49,69.7c1.17,5.13,6.17,8.32,11.17,7.11,5-1.2,8.1-6.34,6.93-11.47-1.17-5.13-6.17-8.32-11.17-7.11-5,1.2-8.1,6.34-6.93,11.47Z"/>
          <path class="cls-4" d="M78.83,65.43c-1.74,6.12,4.64,10.66,9.62,6.85.87-.66,1.51-1.61,1.81-2.68,1.74-6.12-4.64-10.66-9.62-6.85-.87.66-1.51,1.61-1.81,2.68Z"/>
          <path class="cls-10" d="M80.14,79.83c.51,2.2,4.29,3.79,8.29,2.82,4-.97,6-3.65,5.49-5.85-.51-2.2-3.47-3.68-7.46-2.71-4,.97-6.82,3.54-6.32,5.74Z"/>
          <path class="cls-7" d="M30.18,67.19s-5.25-5.14-10.66-1.02c-5.41,4.11-3.87,15.58,2.99,16.52,6.86.94,9.86-6.47,9.86-6.47l-2.18-9.02Z"/>
          <path class="cls-10" d="M26.53,69.94s-3.46-2.79-6.44-.53c-2.98,2.26-2.13,8.58,1.64,9.09,3.78.52,5.43-3.56,5.43-3.56l-.63-5Z"/>
          <path class="cls-7" d="M106.61,61.46s4.49-5.85,10.42-2.56c5.92,3.29,5.98,14.86-.69,16.79-6.66,1.92-10.65-4.98-10.65-4.98l.92-9.25Z"/>
          <path class="cls-10" d="M109.6,64s2.46-3.21,5.72-1.4c3.25,1.81,3.28,8.16-.38,9.21-3.66,1.05-5.84-2.73-5.84-2.73l.5-5.07Z"/>
          <g>
            <path class="cls-2" d="M67.79,81.63c-2.84-.47-4.83-1.73-4.98-1.83-1.14-.74-1.52-2.5-.84-3.93.68-1.42,2.15-1.97,3.29-1.24.24.15,5.19,3.2,9.64-.36,1.13-.91,2.62-.57,3.31.75.69,1.32.33,3.14-.8,4.04-3.4,2.72-6.89,3.01-9.61,2.56Z"/>
            <path class="cls-9" d="M78.42,75.62c-.06-.2-.13-.4-.23-.59-.02-.04-.05-.07-.07-.1-6.8,5.96-14.65,2.27-16.33,1.37-.08.26-.14.53-.16.79.86.45,2.79,1.34,5.25,1.75,3.31.55,7.58.21,11.53-3.22Z"/>
          </g>
          <g>
            <path class="cls-4" d="M114.13,100.66l-4.07,1.15c-1.02.29-1.8,1.24-2,2.43l-.73,4.4c-.14.85-1.35.88-1.54.04l-.88-4.02c-.3-1.39-1.28-2.46-2.5-2.74l-3.82-.88c-.84-.19-.87-1.39-.04-1.62l3.78-1.07c1.2-.34,2.12-1.46,2.35-2.86l.68-4.06c.14-.85,1.35-.88,1.54-.04l.95,4.37c.26,1.18,1.08,2.08,2.11,2.32l4.13.95c.84.19.87,1.39.04,1.62Z"/>
            <path class="cls-4" d="M34.91,98.1l-3.02.85c-.76.21-1.34.92-1.48,1.8l-.54,3.26c-.11.63-1,.65-1.14.03l-.65-2.98c-.22-1.03-.95-1.83-1.85-2.03l-2.83-.65c-.63-.14-.65-1.03-.03-1.2l2.8-.79c.89-.25,1.57-1.08,1.74-2.12l.5-3.01c.11-.63,1-.65,1.14-.03l.71,3.24c.19.87.8,1.54,1.56,1.72l3.06.71c.63.14.65,1.03.03,1.2Z"/>
            <path class="cls-4" d="M122.89,86.76l-1.47.42c-.67.19-1.19.84-1.34,1.68l-.23,1.33c-.17.97-1.45.97-1.63,0l-.2-1.08c-.18-.98-.8-1.75-1.59-1.96l-1.28-.35c-.87-.23-.87-1.56,0-1.8l1.28-.36c.79-.22,1.4-.99,1.57-1.98l.19-1.09c.17-.97,1.45-.97,1.63,0l.25,1.34c.15.83.68,1.48,1.35,1.66l1.48.4c.87.23.87,1.56,0,1.8Z"/>
            <path class="cls-4" d="M18.43,54.82l-1.47.42c-.67.19-1.19.84-1.34,1.68l-.23,1.33c-.17.97-1.45.97-1.63,0l-.2-1.09c-.18-.98-.8-1.75-1.59-1.96l-1.28-.35c-.87-.23-.87-1.56,0-1.8l1.28-.36c.79-.22,1.4-.99,1.57-1.98l.19-1.09c.17-.97,1.45-.97,1.63,0l.25,1.34c.15.83.68,1.48,1.35,1.66l1.48.4c.87.23.87,1.56,0,1.8Z"/>
            <path class="cls-4" d="M123.87,51.58l-1.82.51c-.83.23-1.48,1.05-1.66,2.08l-.28,1.65c-.21,1.2-1.8,1.21-2.02.01l-.25-1.35c-.22-1.22-.99-2.17-1.98-2.43l-1.59-.43c-1.07-.29-1.08-1.93-.01-2.24l1.58-.45c.98-.28,1.74-1.23,1.95-2.45l.23-1.35c.21-1.2,1.8-1.21,2.02-.01l.3,1.66c.19,1.03.84,1.83,1.67,2.05l1.84.5c1.07.29,1.08,1.93.01,2.24Z"/>
          </g>
        </g>
      </g>
    </g>
  </g>
</svg>