<?xml version="1.0" encoding="UTF-8"?>
<svg xmlns="http://www.w3.org/2000/svg" xmlns:xlink="http://www.w3.org/1999/xlink" viewBox="0 0 137.66 137.66">
  <defs>
    <style>
      .cls-1 {
        fill: #f1cead;
      }

      .cls-2 {
        fill: #fff;
      }

      .cls-3 {
        fill: #2c3c52;
      }

      .cls-4 {
        fill: #7ccabf;
      }

      .cls-5 {
        fill: none;
      }

      .cls-6 {
        fill: #ea6868;
      }

      .cls-7 {
        isolation: isolate;
      }

      .cls-8, .cls-9 {
        fill: #f6e1da;
      }

      .cls-10 {
        fill: #edcfaf;
      }

      .cls-11 {
        fill: #daa186;
      }

      .cls-9 {
        mix-blend-mode: multiply;
      }

      .cls-12 {
        fill: #e29ace;
      }

      .cls-13 {
        clip-path: url(#clippath);
      }
    </style>
    <clipPath id="clippath">
      <circle class="cls-5" cx="68.83" cy="68.83" r="61.86" transform="translate(-28.51 68.83) rotate(-45)"/>
    </clipPath>
  </defs>
  <g class="cls-7">
    <g id="Camada_2">
      <g id="OBJECTS">
        <g>
          <circle class="cls-6" cx="68.83" cy="68.83" r="68.83" transform="translate(-28.51 68.83) rotate(-45)"/>
          <circle class="cls-4" cx="68.83" cy="68.83" r="61.86" transform="translate(-28.51 68.83) rotate(-45)"/>
          <g class="cls-13">
            <circle class="cls-12" cx="32.87" cy="89.57" r="14.76" transform="translate(-24.57 13.38) rotate(-16.86)"/>
            <ellipse class="cls-6" cx="38.1" cy="82.59" rx="7.61" ry="14.86" transform="translate(-41.43 38.45) rotate(-36.2)"/>
            <circle class="cls-12" cx="104.9" cy="91.86" r="14.76" transform="translate(-31.4 62.45) rotate(-29.03)"/>
            <path class="cls-6" d="M109.29,77.65c2.63,3.28-.43,10.1-6.83,15.23-6.4,5.13-13.72,6.64-16.35,3.36-2.63-3.28.43-10.1,6.83-15.23,6.4-5.13,13.72-6.64,16.35-3.36Z"/>
            <g>
              <ellipse class="cls-8" cx="71.82" cy="142.14" rx="50.13" ry="38.43"/>
              <path class="cls-1" d="M84.86,94.16l-3.32,12.2s-10.22,5.05-20.89,0l-3.1-7.93,27.31-4.26Z"/>
              <path class="cls-9" d="M59.05,102.25l-1.49-3.82,26.77-2.81-2.36,9.24c-7.93,1.04-15.64-.04-22.91-2.6Z"/>
              <g>
                <path class="cls-12" d="M113.52,69.13c-4.97,21.54-29.66,34.63-52.65,29.37-22.98-5.26-40.56-24.1-35.59-45.65,4.97-21.54,29.74-33.88,52.72-28.62,22.98,5.26,40.49,23.36,35.52,44.9Z"/>
                <path class="cls-10" d="M109.4,71.98c-4.7,20.39-26.15,32.88-47.9,27.9-21.75-4.98-36.39-22-31.69-42.39,4.7-20.39,26.15-32.88,47.9-27.9,21.75,4.98,36.39,22,31.69,42.39Z"/>
                <path class="cls-12" d="M23.46,55.79c-.15,1.73,1.22,3.24,2.96,3.11.52-.04,2.16,1.28,2.89,1.15,22.48-3.9,42.37-25.69,42.37-25.69.26,1.07,15.53,21.43,39.45,27.52,2.78.71,3.41,2.35,4.01-.25,2.2-9.56,2.68-22.25-13.79-34.64-5.2-3.92-19.36-9.84-29.21-5.83-.43.17-44.72-11.49-48.68,34.63Z"/>
                <path class="cls-12" d="M71.09,24.3s-7.21-8.3-4.32-9.12c2.9-.81,4.68,7.54,4.68,7.54,0,0,1.86-9.54,4.26-9.55,2.39,0-.17,10.31-4.62,11.13Z"/>
                <path class="cls-12" d="M50.68,47.59s-11.03,4.43-9.71,8.09,15.79-2,17.67-4.75c1.88-2.75-2.19-6.72-7.96-3.34Z"/>
                <path class="cls-12" d="M89.12,50.13s10.76,5.04,9.24,8.62c-1.52,3.58-15.65-2.89-17.37-5.73-1.72-2.85,2.57-6.58,8.14-2.89Z"/>
                <path class="cls-2" d="M95.69,69.33c-.88,5.02-5.67,8.38-10.71,7.51-5.04-.87-8.41-5.65-7.53-10.68s5.67-8.38,10.71-7.51c5.04.87,8.41,5.65,7.53,10.68Z"/>
                <path class="cls-2" d="M63.37,66.62c-.88,5.02-5.67,8.38-10.71,7.51-5.04-.87-8.41-5.65-7.54-10.68.88-5.02,5.67-8.38,10.71-7.51,5.04.87,8.41,5.65,7.54,10.68Z"/>
                <path class="cls-3" d="M60.23,65.05c-.04,4.13-4.08,6.96-7.99,5.6-2.37-.82-4-3.13-3.97-5.63.04-4.13,4.08-6.96,7.99-5.6,2.37.82,4,3.13,3.97,5.63Z"/>
                <path class="cls-3" d="M91.66,67.75c-.04,4.13-4.07,6.96-7.99,5.6-2.37-.82-4-3.13-3.97-5.63.04-4.13,4.08-6.96,7.99-5.6,2.37.82,4,3.13,3.97,5.63Z"/>
                <path class="cls-11" d="M58.71,76.91c-.49,2.13-4.25,3.69-8.24,2.78-3.99-.91-6-3.49-5.5-5.63.49-2.13,3.43-3.58,7.42-2.67,3.99.91,6.82,3.38,6.33,5.51Z"/>
                <path class="cls-11" d="M80.62,78.28c.09,2.19,3.5,4.41,7.59,4.25,4.09-.16,6.54-2.33,6.45-4.52s-2.71-4.15-6.8-3.98c-4.09.16-7.33,2.07-7.24,4.26Z"/>
                <path class="cls-10" d="M31.21,59.51s-4.52-5.62-10.4-2.38c-5.87,3.23-5.82,14.43.83,16.23s10.56-4.92,10.56-4.92l-1-8.93Z"/>
                <path class="cls-11" d="M27.26,61.67s-3.05-3.13-6.29-1.35c-3.23,1.78-3.2,7.94.46,8.93,3.66.99,5.81-2.71,5.81-2.71l.02-4.88Z"/>
                <path class="cls-10" d="M107.41,64.05s5.18-5.02,10.61-1.09,3.99,15.04-2.83,16.01c-6.82.97-9.87-6.18-9.87-6.18l2.09-8.74Z"/>
                <path class="cls-11" d="M110.03,66.88s2.84-2.75,5.82-.6c2.98,2.16,2.19,8.25-1.55,8.78-3.74.53-5.42-3.39-5.42-3.39l1.15-4.8Z"/>
                <g>
                  <path class="cls-3" d="M76.49,70.53c-5.81-1.32-13.18.6-13.18.6,0,0,.09,1.99,1.02,3.95,3.89-1.66,8.32-2.09,12.1-.88.41-1.91.06-3.67.06-3.67Z"/>
                  <path class="cls-6" d="M64.32,75.08c.94,2,2.74,3.98,6.2,3.82,4.01-.18,5.45-2.53,5.91-4.7-3.79-1.22-8.22-.78-12.1.88Z"/>
                </g>
              </g>
            </g>
          </g>
          <g>
            <path class="cls-2" d="M37.38,105.36l-2.97.84c-.75.21-1.32.9-1.46,1.78l-.54,3.22c-.1.62-.99.64-1.12.03l-.64-2.94c-.22-1.02-.93-1.8-1.82-2l-2.79-.64c-.62-.14-.64-1.01-.03-1.18l2.76-.78c.88-.25,1.55-1.06,1.72-2.09l.49-2.96c.1-.62.99-.64,1.12-.03l.7,3.19c.19.86.79,1.52,1.54,1.69l3.02.7c.62.14.64,1.01.03,1.18Z"/>
            <path class="cls-2" d="M117.7,39.24l-2.97.84c-.75.21-1.32.9-1.46,1.78l-.54,3.22c-.1.62-.99.64-1.12.03l-.64-2.93c-.22-1.02-.93-1.8-1.82-2l-2.79-.64c-.62-.14-.64-1.01-.03-1.18l2.76-.78c.88-.25,1.55-1.06,1.72-2.09l.49-2.96c.1-.62.99-.64,1.12-.03l.7,3.19c.19.86.79,1.52,1.54,1.69l3.02.7c.62.14.64,1.01.03,1.18Z"/>
            <path class="cls-2" d="M30.19,39.58l-1.33.37c-.6.17-1.07.76-1.2,1.51l-.21,1.2c-.15.87-1.31.88-1.47,0l-.18-.98c-.16-.89-.72-1.58-1.44-1.77l-1.15-.31c-.78-.21-.79-1.41,0-1.62l1.15-.32c.71-.2,1.26-.9,1.42-1.78l.17-.98c.15-.87,1.31-.88,1.47,0l.22,1.2c.14.75.61,1.33,1.21,1.49l1.33.36c.78.21.79,1.41,0,1.62Z"/>
            <path class="cls-2" d="M126.54,59.22l-1.47.42c-.67.19-1.19.84-1.34,1.68l-.23,1.33c-.17.97-1.45.97-1.63,0l-.2-1.08c-.18-.98-.8-1.75-1.59-1.96l-1.28-.35c-.87-.23-.87-1.56,0-1.8l1.28-.36c.79-.22,1.4-.99,1.57-1.98l.19-1.09c.17-.97,1.45-.97,1.63,0l.25,1.34c.15.83.68,1.48,1.35,1.66l1.48.4c.87.23.87,1.56,0,1.8Z"/>
            <path class="cls-2" d="M24.76,91.72l-1.82.51c-.83.23-1.48,1.05-1.66,2.08l-.28,1.65c-.21,1.2-1.8,1.21-2.02.01l-.25-1.35c-.22-1.22-.99-2.17-1.98-2.43l-1.59-.43c-1.08-.29-1.08-1.93-.01-2.24l1.58-.45c.98-.28,1.74-1.23,1.95-2.45l.23-1.35c.21-1.2,1.8-1.21,2.02-.01l.3,1.66c.19,1.03.84,1.83,1.67,2.05l1.84.5c1.07.29,1.08,1.93.01,2.24Z"/>
          </g>
        </g>
      </g>
    </g>
  </g>
</svg>