<?xml version="1.0" encoding="UTF-8"?>
<svg id="Camada_2" xmlns="http://www.w3.org/2000/svg" xmlns:xlink="http://www.w3.org/1999/xlink" viewBox="0 0 137.66 137.66">
  <defs>
    <style>
      .cls-1 {
        fill: #fff;
      }

      .cls-2 {
        fill: #e8cc31;
      }

      .cls-3 {
        fill: #ff6ea3;
      }

      .cls-4 {
        fill: #c2b3d7;
      }

      .cls-5 {
        fill: #2c3c52;
      }

      .cls-6 {
        fill: #7ccabf;
      }

      .cls-7, .cls-8 {
        fill: none;
      }

      .cls-9 {
        fill: #8d7472;
      }

      .cls-10 {
        fill: #efc825;
      }

      .cls-8 {
        stroke: #2c3c52;
        stroke-linecap: round;
        stroke-miterlimit: 10;
        stroke-width: 1.6px;
      }

      .cls-11 {
        clip-path: url(#clippath);
      }

      .cls-12 {
        fill: #816169;
      }
    </style>
    <clipPath id="clippath">
      <circle class="cls-7" cx="68.83" cy="68.83" r="61.86" transform="translate(-28.51 68.83) rotate(-45)"/>
    </clipPath>
  </defs>
  <g id="OBJECTS">
    <g>
      <circle class="cls-3" cx="68.83" cy="68.83" r="68.83"/>
      <g class="cls-11">
        <circle class="cls-4" cx="68.83" cy="68.83" r="61.86" transform="translate(-28.51 68.83) rotate(-45)"/>
        <ellipse class="cls-6" cx="71.5" cy="133.35" rx="47.83" ry="29.05" transform="translate(-4.03 2.24) rotate(-1.75)"/>
        <path class="cls-12" d="M85.06,97.84l-2.79,11.96s-9.54,5.21-19.8.6l-3.17-7.63,25.75-4.93Z"/>
        <path class="cls-12" d="M60.84,106.45l-1.53-3.68,25.28-3.51-1.96,9.05c-7.49,1.24-14.82.41-21.79-1.87Z"/>
        <g>
          <path class="cls-5" d="M30.19,79.5c6.07,18.81,29.22,28.17,51.72,20.91,22.5-7.26,36.87-25.11,30.81-43.92-6.07-18.81-29.22-28.17-51.72-20.91-22.5,7.26-36.87,25.11-30.81,43.92Z"/>
          <path class="cls-5" d="M49.87,90.92s7.01,10.52-4.83,13.65c0,0-3.12,7.72-12.16,2.6,0,0-8.74,2.71-10.61-6.67,0,0-8.22-6.23-1.3-10.9,0,0,.06-8.19,11.59-9.36"/>
          <ellipse class="cls-10" cx="49.41" cy="83.85" rx="16.68" ry="14.44"/>
          <path class="cls-5" d="M99.76,72.8s8.93-8.95,14.33,2.04c0,0,11.32.06,7.79,11.98,0,0,2.04,11.62-7.29,11.14,0,0-4.48,9.29-10.43,3.42,0,0-8.04,1.56-11.46-9.51"/>
          <ellipse class="cls-10" cx="96.31" cy="79.19" rx="16.68" ry="14.44" transform="translate(-24.32 110.73) rotate(-54.08)"/>
          <path class="cls-9" d="M32.83,79.55c6.34,19.65,28.41,30.12,49.3,23.38,20.89-6.74,33.79-24.71,27.45-44.36-6.34-19.65-28.41-30.12-49.3-23.38-20.89,6.74-33.79,24.71-27.45,44.36Z"/>
          <path class="cls-5" d="M87.68,53.51s11.18,3.42,10.2,7.13c-.98,3.71-15.64-.63-17.71-3.17-2.08-2.54,1.58-6.79,7.51-3.96Z"/>
          <path class="cls-5" d="M51.93,59.03s-10.11,5.87-8.32,9.26c1.8,3.39,15.09-4.16,16.53-7.11,1.45-2.94-3.08-6.25-8.22-2.15Z"/>
          <path class="cls-1" d="M77.47,72.58c1.29,4.86,6.27,7.76,11.13,6.48,4.86-1.29,7.76-6.27,6.48-11.13-1.29-4.86-6.27-7.76-11.13-6.48s-7.76,6.27-6.48,11.13Z"/>
          <path class="cls-5" d="M80.54,68.72c-1.23,5.96,5.35,9.78,9.91,5.77.79-.7,1.35-1.65,1.56-2.69,1.23-5.96-5.35-9.78-9.91-5.77-.79.7-1.35,1.65-1.56,2.69Z"/>
          <path class="cls-12" d="M82.91,82.31c.66,2.05,4.48,3.27,8.31,2.04,3.83-1.23,5.58-3.94,4.92-6-.66-2.05-3.66-3.23-7.49-2-3.83,1.23-6.39,3.9-5.73,5.96Z"/>
          <path class="cls-1" d="M65.56,74.37c.2,5.03-3.71,9.26-8.74,9.46-5.03.2-9.26-3.71-9.46-8.74-.2-5.03,3.71-9.26,8.74-9.46,5.03-.2,9.26,3.71,9.46,8.74Z"/>
          <path class="cls-5" d="M61.49,71.58c2.93,5.33-2.23,10.92-7.78,8.43-.97-.43-1.77-1.18-2.28-2.11-2.93-5.33,2.23-10.92,7.78-8.43.97.43,1.77,1.18,2.28,2.11Z"/>
          <path class="cls-12" d="M63.22,85.27c-.03,2.16-3.32,4.44-7.34,4.39-4.02-.05-6.49-2.13-6.46-4.29.03-2.16,2.55-4.16,6.58-4.11,4.02.05,7.26,1.85,7.23,4.01Z"/>
          <path class="cls-9" d="M108.38,60.68s3.96-5.9,9.99-3.22c6.03,2.68,6.93,13.7.56,16.03-6.36,2.33-10.77-3.94-10.77-3.94l.22-8.87Z"/>
          <path class="cls-12" d="M112.43,62.47s2.73-3.34,6.05-1.86,3.81,7.54.31,8.82c-3.5,1.28-5.93-2.17-5.93-2.17l-.43-4.79Z"/>
          <path class="cls-9" d="M34.11,71.58s-5.51-4.49-10.49-.17c-4.98,4.32-2.64,15.12,4.13,15.5,6.77.38,9.15-6.91,9.15-6.91l-2.79-8.42Z"/>
          <path class="cls-12" d="M31.77,74.59s-3.02-2.47-5.76-.09c-2.74,2.37-1.45,8.3,2.27,8.5,3.71.21,5.02-3.79,5.02-3.79l-1.53-4.62Z"/>
          <path class="cls-8" d="M67.83,78.66s4.77,2.81,8.4-1.47"/>
        </g>
        <path class="cls-5" d="M42.52,32.41s-7.84-3.62-6.93-7.54c.9-3.92,6.37,3.92,6.37,3.92,0,0-3.66-8.74.56-10.55s5.73,14.17,5.73,14.17"/>
        <path class="cls-5" d="M47.79,41.16s11.03,15.25,21.79,4.2c0,0,9.59,10.17,18.89.87,0,0,7.91,13.92,21.11,12.34l3.14-2.07s6.86-11.43-7.97-19.57c0,0,2.69-18.25-30.81-15.99,0,0-11.82-15.06-31.98,7.85,0,0-25.36,8.95-17.15,25.87,0,0-12.62,13.75-1.2,16.75l10.49.17s7.28-4.13,5.82-14.88c0,0,5.84.6,7.86-15.54Z"/>
      </g>
      <g>
        <path class="cls-2" d="M118.8,42.16l-4.07,1.15c-1.02.29-1.8,1.24-2,2.43l-.73,4.4c-.14.85-1.35.88-1.54.04l-.88-4.02c-.3-1.39-1.28-2.46-2.5-2.74l-3.82-.88c-.84-.19-.87-1.39-.04-1.62l3.78-1.07c1.2-.34,2.12-1.46,2.35-2.86l.68-4.06c.14-.85,1.35-.88,1.54-.04l.95,4.37c.26,1.18,1.08,2.08,2.11,2.32l4.13.95c.84.19.87,1.38.04,1.62Z"/>
        <path class="cls-2" d="M19.55,56.73l-1.47.42c-.67.19-1.19.84-1.34,1.68l-.23,1.33c-.17.97-1.45.97-1.63,0l-.2-1.08c-.18-.98-.8-1.75-1.59-1.96l-1.28-.35c-.87-.23-.87-1.56,0-1.8l1.28-.36c.79-.22,1.4-.99,1.57-1.98l.19-1.09c.17-.97,1.45-.97,1.63,0l.25,1.34c.15.83.68,1.48,1.35,1.66l1.48.4c.87.23.87,1.56,0,1.8Z"/>
        <path class="cls-2" d="M101.81,28.34l-1.82.51c-.83.23-1.48,1.05-1.66,2.08l-.28,1.65c-.21,1.2-1.8,1.21-2.02.01l-.25-1.35c-.22-1.22-.99-2.17-1.98-2.43l-1.59-.43c-1.07-.29-1.08-1.93-.01-2.24l1.58-.45c.98-.28,1.74-1.23,1.95-2.45l.23-1.35c.21-1.2,1.8-1.21,2.02-.01l.3,1.66c.19,1.03.84,1.83,1.67,2.05l1.84.5c1.07.29,1.08,1.93.01,2.24Z"/>
      </g>
    </g>
  </g>
</svg>