<?xml version="1.0" encoding="UTF-8"?>
<svg id="Camada_2" xmlns="http://www.w3.org/2000/svg" xmlns:xlink="http://www.w3.org/1999/xlink" viewBox="0 0 137.66 137.66">
  <defs>
    <style>
      .cls-1 {
        fill: #fff;
      }

      .cls-2 {
        fill: #e8cc31;
      }

      .cls-3 {
        fill: #c2b3d7;
      }

      .cls-4 {
        fill: #2c3c52;
      }

      .cls-5 {
        fill: #7ccabf;
      }

      .cls-6, .cls-7 {
        fill: none;
      }

      .cls-7 {
        stroke: #2c3c52;
        stroke-linecap: round;
        stroke-miterlimit: 10;
        stroke-width: 1.71px;
      }

      .cls-8 {
        fill: #ea6868;
      }

      .cls-9 {
        fill: #f2ab8f;
      }

      .cls-10 {
        fill: #e88d6d;
      }

      .cls-11 {
        clip-path: url(#clippath);
      }
    </style>
    <clipPath id="clippath">
      <circle class="cls-6" cx="68.83" cy="68.83" r="61.86" transform="translate(-14.3 119.47) rotate(-76.35)"/>
    </clipPath>
  </defs>
  <g id="OBJECTS">
    <g>
      <circle class="cls-5" cx="68.83" cy="68.83" r="68.83"/>
      <g class="cls-11">
        <circle class="cls-3" cx="68.83" cy="68.83" r="61.86" transform="translate(-14.3 119.47) rotate(-76.35)"/>
        <ellipse class="cls-8" cx="70.37" cy="137.47" rx="51.11" ry="31.03"/>
        <path class="cls-9" d="M54.73,99.99l3.36,12.68s10.36,5.25,21.16,0l3.14-8.25-27.66-4.43Z"/>
        <path class="cls-10" d="M80.88,108.4l1.51-3.98-27.11-2.92,2.39,9.6c8.03,1.08,15.84-.04,23.21-2.7Z"/>
        <g>
          <path class="cls-4" d="M112.72,78.62c-5.87,20.28-30.29,31.04-54.55,24.02-24.26-7.02-40.2-25.62-34.33-45.9,5.87-20.28,30.29-31.04,54.55-24.02,24.26,7.02,40.2,25.62,34.33,45.9Z"/>
          <path class="cls-9" d="M109.91,78.76c-6.13,21.19-29.36,33.09-51.89,26.58-22.53-6.52-36.89-25.29-30.76-46.48,6.13-21.19,29.36-33.09,51.89-26.58,22.53,6.52,36.89,25.29,30.76,46.48Z"/>
          <path class="cls-4" d="M82.32,18.72c-25.56-7.39-51.92,6.11-58.87,30.15-.33,1.14-1.73,8.9-1.96,10.03,0,0,4.45.55,5.76-.04,7.16-3.25,11.1-13.76,11.1-13.76l7.01,1.28,3.51-7.64,1.15,8.49,9.94,1.82,4.03-8.78,1.32,9.76,18.24,3.34,3-6.53.98,7.26,6.11,1.12,5.18-11.28,1.69,12.54,5.97,1.09s1.91,10.95,4.82,12.71c1.18.71,5.48-.66,5.48-.66,4.38-30.01-11.14-44.16-34.47-50.91Z"/>
          <path class="cls-4" d="M50.41,50.39s-11.83,4.02-10.66,7.95c1.17,3.93,16.68-1.19,18.81-3.97,2.13-2.78-1.91-7.2-8.15-3.98Z"/>
          <path class="cls-4" d="M88.77,55.12s10.99,5.94,9.19,9.62c-1.81,3.68-16.25-3.95-17.89-7.05-1.64-3.1,3.08-6.78,8.7-2.57Z"/>
          <path class="cls-1" d="M61.94,70.43c-1.21,5.24-6.44,8.49-11.68,7.28-5.24-1.21-8.49-6.44-7.28-11.68,1.21-5.24,6.44-8.49,11.68-7.28,5.24,1.21,8.49,6.44,7.28,11.68Z"/>
          <path class="cls-4" d="M58.54,66.39c1.51,6.32-5.39,10.62-10.4,6.48-.87-.72-1.49-1.72-1.76-2.82-1.51-6.32,5.39-10.62,10.4-6.48.87.72,1.49,1.72,1.76,2.82Z"/>
          <path class="cls-10" d="M56.45,80.99c-.64,2.22-4.68,3.64-8.81,2.44-4.13-1.19-6.09-4.03-5.44-6.24.64-2.22,3.81-3.57,7.94-2.37,4.13,1.19,6.96,3.96,6.32,6.17Z"/>
          <path class="cls-1" d="M74.72,71.95c-.05,5.37,4.27,9.77,9.64,9.82,5.37.05,9.77-4.27,9.82-9.64.05-5.37-4.27-9.77-9.64-9.82-5.37-.05-9.77,4.27-9.82,9.64Z"/>
          <path class="cls-4" d="M78.97,68.83c-2.95,5.79,2.74,11.59,8.58,8.75,1.02-.5,1.86-1.32,2.37-2.33,2.95-5.79-2.74-11.59-8.58-8.75-1.02.49-1.86,1.32-2.37,2.33Z"/>
          <path class="cls-10" d="M77.57,83.51c.1,2.3,3.69,4.64,7.99,4.45,4.29-.19,6.86-2.48,6.76-4.79-.1-2.3-2.86-4.36-7.16-4.18-4.29.19-7.69,2.21-7.59,4.52Z"/>
          <path class="cls-9" d="M28.62,61.07s-4.42-6.18-10.77-3.11c-6.35,3.06-6.95,14.85-.08,17.14,6.87,2.28,11.37-4.56,11.37-4.56l-.52-9.46Z"/>
          <path class="cls-10" d="M24.34,63.11s-3.02-3.48-6.52-1.79c-3.5,1.69-3.83,8.18-.04,9.43,3.78,1.26,6.26-2.51,6.26-2.51l.3-5.13Z"/>
          <path class="cls-9" d="M108.29,70.29s5.73-4.98,11.2-.52c5.46,4.46,3.31,16.06-3.91,16.68-7.22.62-10-7.08-10-7.08l2.71-9.08Z"/>
          <path class="cls-10" d="M110.88,73.42s3.15-2.73,6.14-.29,1.81,8.81-2.14,9.16c-3.96.34-5.49-3.88-5.49-3.88l1.49-4.98Z"/>
          <path class="cls-7" d="M72.43,76.6s-5.01,3.15-9.01-1.3"/>
        </g>
      </g>
      <g>
        <path class="cls-2" d="M38.81,102.76l-4.07,1.15c-1.02.29-1.8,1.24-2,2.43l-.73,4.4c-.14.85-1.35.88-1.54.04l-.88-4.02c-.3-1.39-1.28-2.46-2.5-2.74l-3.82-.88c-.84-.19-.87-1.39-.04-1.62l3.78-1.07c1.2-.34,2.12-1.46,2.35-2.86l.68-4.06c.14-.85,1.35-.88,1.54-.04l.95,4.37c.26,1.18,1.08,2.08,2.11,2.32l4.13.95c.84.19.87,1.39.04,1.62Z"/>
        <path class="cls-2" d="M24.64,85.01l-3.02.85c-.76.21-1.34.92-1.48,1.8l-.54,3.26c-.11.63-1,.65-1.14.03l-.65-2.98c-.22-1.03-.95-1.83-1.85-2.03l-2.83-.65c-.63-.14-.65-1.03-.03-1.2l2.8-.79c.89-.25,1.57-1.08,1.74-2.12l.5-3.01c.1-.63,1-.65,1.14-.03l.71,3.24c.19.87.8,1.54,1.56,1.72l3.06.71c.63.14.65,1.03.03,1.2Z"/>
        <path class="cls-2" d="M113.56,100.55l-1.47.42c-.67.19-1.19.84-1.34,1.68l-.23,1.33c-.17.97-1.45.97-1.63,0l-.2-1.08c-.18-.98-.8-1.75-1.59-1.96l-1.28-.35c-.87-.23-.87-1.56,0-1.8l1.28-.36c.79-.22,1.4-.99,1.57-1.98l.19-1.09c.17-.97,1.45-.97,1.63,0l.25,1.34c.15.83.68,1.48,1.35,1.66l1.48.4c.87.23.87,1.56,0,1.8Z"/>
        <path class="cls-2" d="M37.93,30.04l-1.47.42c-.67.19-1.19.84-1.34,1.68l-.23,1.33c-.17.97-1.45.97-1.63,0l-.2-1.08c-.18-.98-.8-1.75-1.59-1.96l-1.28-.35c-.87-.23-.87-1.56,0-1.8l1.28-.36c.79-.22,1.4-.99,1.57-1.98l.19-1.09c.17-.97,1.45-.97,1.63,0l.25,1.34c.15.83.68,1.48,1.35,1.66l1.48.4c.87.23.87,1.56,0,1.8Z"/>
        <path class="cls-2" d="M124.61,58.76l-1.82.51c-.83.23-1.48,1.05-1.66,2.08l-.28,1.65c-.21,1.2-1.8,1.21-2.02.01l-.25-1.35c-.22-1.22-.99-2.17-1.98-2.43l-1.59-.43c-1.07-.29-1.08-1.93-.01-2.24l1.58-.45c.98-.28,1.74-1.23,1.95-2.45l.23-1.35c.21-1.2,1.8-1.21,2.02-.01l.3,1.66c.19,1.03.84,1.83,1.67,2.05l1.84.5c1.07.29,1.08,1.93.01,2.24Z"/>
      </g>
    </g>
  </g>
</svg>