<?xml version="1.0" encoding="UTF-8"?>
<svg xmlns="http://www.w3.org/2000/svg" xmlns:xlink="http://www.w3.org/1999/xlink" viewBox="0 0 137.66 137.66">
  <defs>
    <style>
      .cls-1 {
        fill: #cd5c4b;
      }

      .cls-2 {
        fill: #f1cead;
      }

      .cls-3 {
        fill: #fff;
      }

      .cls-4 {
        fill: #c2b3d7;
      }

      .cls-5 {
        fill: #2c3c52;
      }

      .cls-6 {
        isolation: isolate;
      }

      .cls-7 {
        fill: #edcfaf;
      }

      .cls-8 {
        fill: #daa186;
      }

      .cls-9 {
        fill: #f6e1da;
        mix-blend-mode: multiply;
      }

      .cls-10 {
        fill: #e29ace;
      }

      .cls-11 {
        clip-path: url(#clippath);
      }
    </style>
    <clipPath id="clippath">
      <circle class="cls-5" cx="68.83" cy="68.83" r="61.86" transform="translate(-13.66 120.51) rotate(-77.07)"/>
    </clipPath>
  </defs>
  <g class="cls-6">
    <g id="Camada_2">
      <g id="OBJECTS">
        <g>
          <circle class="cls-9" cx="68.83" cy="68.83" r="68.83"/>
          <g>
            <circle class="cls-5" cx="68.83" cy="68.83" r="61.86" transform="translate(-13.66 120.51) rotate(-77.07)"/>
            <g class="cls-11">
              <g>
                <path class="cls-4" d="M26.59,51.47s-6.86,40.1-7.39,45.66c-.53,5.56,13.67,7.53,15.62,6.68l1.34-7.91,1.82,8.21s48.86,2.86,72.31-9.65l-.18-6.67,3.3,5.56c2.55-.59,10.93-5.9,11.48-9.39.54-3.48-10.52-30.88-12.04-35.57s-86.25,3.08-86.25,3.08Z"/>
                <ellipse class="cls-10" cx="73.61" cy="132.25" rx="46.24" ry="28.08"/>
                <path class="cls-2" d="M59.46,98.34l3.04,11.47s9.37,4.75,19.15,0l2.84-7.46-25.03-4.01Z"/>
                <path class="cls-9" d="M83.12,105.95l1.37-3.6-24.53-2.64,2.16,8.69c7.27.98,14.33-.04,21-2.45Z"/>
                <path class="cls-7" d="M111.73,69.38c-2.05,21.35-22.11,36.9-44.81,34.73-22.7-2.18-39.8-17.53-37.75-38.89,2.05-21.35,22.11-36.9,44.81-34.73,22.7,2.18,39.8,17.53,37.75,38.89Z"/>
                <path class="cls-4" d="M48.33,54.02s-10.58,5.97-8.76,9.51c1.82,3.54,15.73-4.13,17.27-7.17,1.54-3.04-3.12-6.54-8.51-2.34Z"/>
                <path class="cls-4" d="M88.27,49.86s11.57,3.7,10.51,7.54c-1.07,3.84-16.24-.86-18.36-3.52-2.12-2.66,1.72-7.03,7.86-4.02Z"/>
                <path class="cls-4" d="M64.96,23.64s-36.08-6.07-40.57,40.85c0,0,1.16,2.29,4.78.74,5.79-2.48,19.89-8.89,21.23-12.65,1.34-3.77,1.36-14.22,1.36-14.22l4.53,15.04s24.69,3.92,31.21-1.92c2.61-2.74-.02-13.39-.02-13.39,0,0,14.1,22.37,23.47,19.99,2.67-.68,1.89-.41,2.14-2.96,1.17-12.16-7.32-22.53-14.39-27.81-9.9-7.39-24.55-8.41-33.74-3.67Z"/>
                <path class="cls-3" d="M97.49,68.51c-.22,5.22-4.63,9.28-9.85,9.06-5.22-.22-9.28-4.63-9.06-9.85.22-5.22,4.63-9.28,9.85-9.06s9.28,4.63,9.06,9.85Z"/>
                <path class="cls-3" d="M64.38,70.04c-.22,5.22-4.63,9.28-9.85,9.06-5.22-.22-9.28-4.63-9.06-9.85.22-5.22,4.63-9.28,9.85-9.06,5.22.22,9.28,4.63,9.06,9.85Z"/>
                <path class="cls-1" d="M55.2,75.65c-3.41.89-8.65-5.2-7.29-8.51,2.36-5.74,6.59,0,6.59,0,0,0,.14-4.09,4.42-3.22,4.28.87,1.37,10.64-3.72,11.71"/>
                <path class="cls-1" d="M88.05,74.11c3.51.3,7.65-6.59,5.76-9.61-3.29-5.27-6.5,1.12-6.5,1.12,0,0-.83-4-4.9-2.43-4.07,1.58.44,10.72,5.64,10.92"/>
                <path class="cls-8" d="M61.03,81.13c-.21,2.23-3.82,4.32-7.98,3.92-4.16-.4-6.54-2.76-6.33-4.99.21-2.23,3-4.1,7.16-3.7,4.16.4,7.36,2.53,7.15,4.76Z"/>
                <path class="cls-8" d="M83.41,79.61c.38,2.21,4.13,4.02,8.25,3.31,4.12-.71,6.31-3.24,5.93-5.45-.38-2.21-3.3-3.86-7.42-3.15-4.12.71-7.15,3.08-6.77,5.29Z"/>
                <g>
                  <path class="cls-1" d="M72.83,78.15c-1.18-1.31-3.36-1.21-4.82-.95.05,1.52.99,3.28,3.54,3.96,3.33.88,5.39-.32,6.26-1.81-1.46-2.46-4.99-1.2-4.99-1.2Z"/>
                  <path class="cls-5" d="M72.83,78.15s3.53-1.26,4.99,1.2c.73-1.25.63-2.71-.28-3.32-1.99-1.33-2.96.81-4.8-.15-.77-.4-1.42-1.37-3.26-1.25-.86.06-1.51,1.22-1.46,2.56,1.46-.25,3.63-.35,4.82.95Z"/>
                </g>
                <path class="cls-7" d="M30.86,67.09s-5.33-5.11-10.85-1.04c-5.52,4.07-3.97,15.44,3,16.39,6.98.95,10.05-6.4,10.05-6.4l-2.2-8.95Z"/>
                <path class="cls-8" d="M27.14,69.81s-3.51-2.78-6.55-.54-2.19,8.5,1.65,9.02c3.84.52,5.53-3.52,5.53-3.52l-.63-4.96Z"/>
                <path class="cls-7" d="M108.65,61.58s4.58-5.79,10.61-2.51,6.05,14.76-.73,16.65c-6.78,1.89-10.83-4.97-10.83-4.97l.95-9.17Z"/>
                <path class="cls-8" d="M111.69,64.11s2.52-3.18,5.82-1.38,3.32,8.1-.4,9.13c-3.72,1.04-5.94-2.72-5.94-2.72l.52-5.03Z"/>
                <path class="cls-4" d="M64.87,27.89s-9.44-8.39-6.27-9.75,6.45,7.89,6.45,7.89c0,0,.69-11.16,3.41-11.52,2.72-.36,1.36,11.78-3.58,13.38Z"/>
              </g>
            </g>
          </g>
          <g>
            <path class="cls-3" d="M115.62,102.96l-2.97.84c-.75.21-1.32.9-1.46,1.78l-.54,3.22c-.1.62-.99.64-1.12.03l-.64-2.93c-.22-1.02-.93-1.8-1.82-2l-2.79-.64c-.62-.14-.64-1.01-.03-1.18l2.76-.78c.88-.25,1.55-1.06,1.72-2.09l.49-2.96c.1-.62.99-.64,1.12-.03l.7,3.19c.19.86.79,1.52,1.54,1.69l3.02.7c.62.14.64,1.01.03,1.18Z"/>
            <path class="cls-3" d="M35.16,110.57l-1.33.37c-.6.17-1.07.76-1.2,1.51l-.21,1.2c-.15.87-1.31.88-1.47,0l-.18-.98c-.16-.89-.72-1.58-1.44-1.77l-1.15-.31c-.78-.21-.79-1.41,0-1.62l1.15-.32c.71-.2,1.26-.9,1.42-1.78l.17-.98c.15-.87,1.31-.88,1.47,0l.22,1.2c.14.75.61,1.33,1.21,1.49l1.33.36c.78.21.79,1.41,0,1.62Z"/>
            <path class="cls-3" d="M35.16,30.42l-1.33.37c-.6.17-1.07.76-1.2,1.51l-.21,1.2c-.15.87-1.31.88-1.47,0l-.18-.98c-.16-.89-.72-1.58-1.44-1.77l-1.15-.31c-.78-.21-.79-1.4,0-1.62l1.15-.32c.71-.2,1.26-.9,1.42-1.78l.17-.98c.15-.87,1.31-.88,1.47,0l.22,1.2c.14.75.61,1.33,1.21,1.49l1.33.36c.78.21.79,1.41,0,1.62Z"/>
            <path class="cls-3" d="M124.46,50.06l-1.47.42c-.67.19-1.19.84-1.34,1.68l-.23,1.33c-.17.97-1.45.97-1.63,0l-.2-1.09c-.18-.98-.8-1.75-1.59-1.96l-1.28-.35c-.87-.23-.87-1.56,0-1.8l1.28-.36c.79-.22,1.4-.99,1.57-1.98l.19-1.09c.17-.97,1.45-.97,1.63,0l.25,1.34c.15.83.68,1.48,1.35,1.66l1.48.4c.87.23.87,1.56,0,1.8Z"/>
            <path class="cls-3" d="M25.27,49.07l-1.82.51c-.83.23-1.48,1.05-1.66,2.08l-.28,1.65c-.21,1.2-1.8,1.21-2.02.01l-.25-1.34c-.22-1.22-.99-2.17-1.98-2.43l-1.59-.43c-1.07-.29-1.08-1.93-.01-2.24l1.58-.45c.98-.28,1.74-1.23,1.95-2.45l.23-1.35c.21-1.2,1.8-1.21,2.02-.01l.3,1.66c.19,1.03.84,1.83,1.67,2.05l1.84.5c1.07.29,1.08,1.93.01,2.24Z"/>
          </g>
        </g>
      </g>
    </g>
  </g>
</svg>