<?xml version="1.0" encoding="UTF-8"?>
<svg id="Camada_2" xmlns="http://www.w3.org/2000/svg" xmlns:xlink="http://www.w3.org/1999/xlink" viewBox="0 0 137.66 137.66">
  <defs>
    <style>
      .cls-1 {
        fill: #efbbaf;
      }

      .cls-2 {
        fill: #294092;
      }

      .cls-3 {
        fill: #fce1d0;
      }

      .cls-4 {
        fill: #fff;
      }

      .cls-5 {
        fill: #ff6ea3;
      }

      .cls-6, .cls-7 {
        fill: #9cb7e0;
      }

      .cls-8 {
        fill: #2c3c52;
      }

      .cls-9 {
        fill: #7ccabf;
      }

      .cls-7 {
        opacity: .43;
      }

      .cls-10 {
        fill: #8380b9;
      }

      .cls-11 {
        fill: #efc825;
      }

      .cls-12 {
        clip-path: url(#clippath);
      }
    </style>
    <clipPath id="clippath">
      <circle class="cls-9" cx="68.83" cy="68.83" r="61.86" transform="translate(-14.3 119.47) rotate(-76.35)"/>
    </clipPath>
  </defs>
  <g id="OBJECTS">
    <g>
      <circle class="cls-5" cx="68.83" cy="68.83" r="68.83" transform="translate(-10.34 125.47) rotate(-80.58)"/>
      <g>
        <circle class="cls-9" cx="68.83" cy="68.83" r="61.86" transform="translate(-14.3 119.47) rotate(-76.35)"/>
        <g class="cls-12">
          <g>
            <ellipse class="cls-2" cx="67.76" cy="147.12" rx="50.13" ry="38.43"/>
            <path class="cls-3" d="M79.56,98.96l-3.32,12.2s-10.22,5.05-20.89,0l-3.1-7.93,27.31-4.26Z"/>
            <path class="cls-1" d="M53.74,107.04l-1.49-3.82,26.77-2.81-2.36,9.24c-7.93,1.04-15.64-.04-22.91-2.6Z"/>
            <g>
              <path class="cls-11" d="M127.9,70.85c-3.15-4.42-8.53-7.34-11.01-12.11-2-3.85-1.81-8.37-1.21-12.63.6-4.26,1.58-8.56,1.01-12.81-.78-5.89-4.74-11.36-10.46-14.04-5.72-2.68-13.05-2.38-18.42.97-1.68,1.05-3.14,2.39-4.3,3.92,10.12.69,20.74,6.97,22.9,17.12,2.02,11.1-4.18,20.91-12.97,26.9.37,1.05.75,2.1,1.14,3.14-2.53,5.23-2.02,13.56-1.61,15.75.41,2.19,6.19,5.34,6.19,5.34l-.41-5.12c.77,2.11,1.72,3.94,2.98,5.19,2.06,2.05,7.48,1.93,10.72,1.65,1.52-.13,1.15-5.66,1.15-5.66l3.25,4.57c4.48-1.28,12.03-5.69,13.29-9.85,1.26-4.16.31-8.75-2.24-12.32Z"/>
              <path class="cls-5" d="M106.41,41.26c-2.16-10.14-12.78-16.43-22.9-17.12-2.57,3.35-3.76,7.6-2.95,11.6l5.42,4.49c1.72,9.47,4.22,18.81,7.45,27.93,8.8-6,14.99-15.8,12.97-26.9Z"/>
              <g>
                <path class="cls-3" d="M104.09,76.78c-4.7,20.39-26.15,32.88-47.9,27.9-21.75-4.98-36.39-22-31.69-42.39,4.7-20.39,26.15-32.88,47.9-27.9,21.75,4.98,36.39,22,31.69,42.39Z"/>
                <path class="cls-11" d="M64.05,26.1S26.15,17.84,19.48,60.45c0,0,.83,2.36,4.54,1.32,5.93-1.67,20.43-6.07,22.21-9.54,1.78-3.47,3.13-13.57,3.13-13.57l2.48,15.12s23.46,6.92,30.54,2.11c2.88-2.32,1.69-12.95,1.69-12.95,0,0,10.83,23.42,20.23,22.32,2.68-.31,1.89-.16,2.45-2.59,2.68-11.61-4.23-22.71-10.42-28.72-8.66-8.41-22.75-11.25-32.28-7.84Z"/>
                <path class="cls-11" d="M63.42,30.21s-8.09-9.31-4.84-10.23c3.25-.91,5.25,8.45,5.25,8.45,0,0,2.09-10.71,4.77-10.71,2.68,0-.19,11.56-5.18,12.49Z"/>
                <path class="cls-11" d="M45.38,52.38s-11.03,4.43-9.71,8.09,15.79-2,17.67-4.75c1.88-2.75-2.19-6.72-7.96-3.34Z"/>
                <path class="cls-11" d="M83.81,54.93s10.76,5.04,9.24,8.62-15.65-2.89-17.37-5.73c-1.72-2.85,2.57-6.58,8.14-2.89Z"/>
                <path class="cls-4" d="M90.39,74.13c-.88,5.02-5.67,8.38-10.71,7.51-5.04-.87-8.41-5.65-7.53-10.68.88-5.02,5.67-8.38,10.71-7.51,5.04.87,8.41,5.65,7.53,10.68Z"/>
                <path class="cls-4" d="M58.07,71.41c-.88,5.02-5.67,8.38-10.71,7.51-5.04-.87-8.41-5.65-7.54-10.68.88-5.02,5.67-8.38,10.71-7.51,5.04.87,8.41,5.65,7.54,10.68Z"/>
                <path class="cls-8" d="M54.92,69.84c-.04,4.13-4.08,6.96-7.99,5.6-2.37-.82-4-3.13-3.97-5.63.04-4.13,4.08-6.96,7.99-5.6,2.37.82,4,3.13,3.97,5.63Z"/>
                <path class="cls-8" d="M86.35,72.55c-.04,4.13-4.07,6.96-7.99,5.6-2.37-.82-4-3.13-3.97-5.63.04-4.13,4.08-6.96,7.99-5.6,2.37.82,4,3.13,3.97,5.63Z"/>
                <path class="cls-1" d="M53.4,81.71c-.49,2.13-4.25,3.69-8.24,2.78-3.99-.91-6-3.49-5.5-5.63.49-2.13,3.43-3.58,7.42-2.67,3.99.91,6.82,3.38,6.33,5.51Z"/>
                <path class="cls-1" d="M75.32,83.08c.09,2.19,3.5,4.41,7.59,4.25,4.09-.16,6.54-2.33,6.45-4.52-.09-2.19-2.71-4.15-6.8-3.98-4.09.16-7.33,2.07-7.24,4.26Z"/>
                <path class="cls-3" d="M25.91,64.31s-4.52-5.62-10.4-2.38c-5.87,3.23-5.82,14.43.83,16.23s10.56-4.92,10.56-4.92l-1-8.93Z"/>
                <path class="cls-1" d="M21.95,66.46s-3.05-3.13-6.29-1.35-3.2,7.94.46,8.93c3.66.99,5.81-2.71,5.81-2.71l.02-4.88Z"/>
                <path class="cls-3" d="M102.1,68.84s5.18-5.02,10.61-1.09,3.99,15.04-2.83,16.01c-6.82.97-9.87-6.18-9.87-6.18l2.09-8.74Z"/>
                <path class="cls-1" d="M104.73,71.67s2.84-2.75,5.82-.6c2.98,2.16,2.19,8.25-1.55,8.78-3.74.53-5.42-3.39-5.42-3.39l1.15-4.8Z"/>
                <g>
                  <path class="cls-4" d="M61.1,83.89c-2.93-.93-4.89-2.41-5.04-2.52-1.12-.86-1.33-2.47-.47-3.59.86-1.12,2.47-1.33,3.59-.47.23.17,5.12,3.76,10.17,1.47,1.29-.58,2.81-.02,3.4,1.27.59,1.29.02,2.8-1.28,3.39-3.87,1.75-7.57,1.35-10.37.46Z"/>
                  <path class="cls-7" d="M72.92,80.6c-.04-.19-.09-.37-.17-.56-.02-.04-.04-.07-.06-.1-7.78,3.95-15.65-.72-17.31-1.83-.12.21-.2.44-.25.66.86.55,2.79,1.69,5.34,2.5,3.42,1.09,7.94,1.58,12.46-.68Z"/>
                </g>
                <g>
                  <path class="cls-6" d="M93.25,51.5c-10.15-2.5-20.41,3.38-23.43,13.22-.17-.05-.34-.1-.52-.14-2.2-.54-4.41-.69-6.55-.49-.71-8.08-6.46-15.19-14.8-17.25-10.5-2.59-21.12,3.79-23.71,14.25-2.6,10.46,3.8,21.04,14.3,23.63,10.5,2.59,21.12-3.79,23.71-14.25.3-1.19.47-2.38.54-3.57,1.9-.2,3.87-.09,5.83.4.19.05.38.11.57.16-1.54,9.88,4.72,19.47,14.64,21.92,10.5,2.59,21.12-3.79,23.72-14.25,2.6-10.46-3.8-21.04-14.3-23.63ZM39.23,81.99c-8.99-2.22-14.47-11.27-12.24-20.23,2.22-8.95,11.31-14.42,20.3-12.2,8.99,2.22,14.47,11.27,12.24,20.23-2.22,8.95-11.31,14.42-20.3,12.2ZM84.52,86.65c-8.99-2.22-14.47-11.27-12.24-20.23s11.31-14.42,20.3-12.2c8.99,2.22,14.47,11.27,12.24,20.23-2.22,8.95-11.31,14.42-20.3,12.2Z"/>
                  <path class="cls-10" d="M92.51,50.27c-10.15-2.5-20.41,3.38-23.43,13.22-.17-.05-.34-.1-.52-.14-2.2-.54-4.41-.69-6.55-.49-.71-8.08-6.46-15.19-14.8-17.25-10.5-2.59-21.12,3.79-23.71,14.25-2.6,10.46,3.8,21.04,14.3,23.63,10.5,2.59,21.12-3.79,23.71-14.25.3-1.19.47-2.38.54-3.57,1.9-.2,3.87-.09,5.83.4.19.05.38.11.57.16-1.54,9.88,4.72,19.47,14.64,21.92,10.5,2.59,21.12-3.79,23.71-14.25,2.6-10.46-3.8-21.04-14.3-23.63ZM38.49,80.77c-8.99-2.22-14.47-11.27-12.24-20.23,2.22-8.95,11.31-14.42,20.3-12.2,8.99,2.22,14.47,11.27,12.24,20.23-2.22,8.95-11.31,14.42-20.3,12.2ZM83.78,85.43c-8.99-2.22-14.47-11.27-12.24-20.23s11.31-14.42,20.3-12.2c8.99,2.22,14.47,11.27,12.24,20.23-2.22,8.95-11.31,14.42-20.3,12.2Z"/>
                </g>
              </g>
            </g>
          </g>
        </g>
      </g>
      <path class="cls-8" d="M109.37,106.42l-4.17,1.18c-1.05.3-1.85,1.27-2.05,2.49l-.75,4.51c-.15.87-1.39.9-1.57.04l-.9-4.11c-.31-1.43-1.31-2.52-2.56-2.81l-3.91-.9c-.86-.2-.89-1.42-.04-1.66l3.87-1.09c1.23-.35,2.17-1.49,2.41-2.93l.69-4.15c.15-.87,1.39-.9,1.57-.04l.98,4.48c.26,1.2,1.1,2.13,2.16,2.37l4.23.98c.86.2.89,1.42.04,1.66Z"/>
      <path class="cls-8" d="M30.44,94.65l-3.68,1c-.92.25-1.63,1.07-1.81,2.1l-.67,3.8c-.13.73-1.22.76-1.39.03l-.79-3.46c-.27-1.2-1.15-2.12-2.25-2.36l-3.45-.76c-.76-.17-.79-1.19-.03-1.4l3.41-.93c1.09-.29,1.92-1.26,2.13-2.47l.61-3.5c.13-.73,1.22-.76,1.39-.03l.86,3.77c.23,1.01.97,1.79,1.9,2l3.73.82c.76.17.79,1.19.03,1.4Z"/>
      <path class="cls-8" d="M126.16,52.93l-1.47.42c-.67.19-1.19.84-1.34,1.68l-.23,1.33c-.17.97-1.45.97-1.63,0l-.2-1.08c-.18-.98-.8-1.75-1.59-1.96l-1.28-.35c-.87-.23-.87-1.56,0-1.8l1.28-.36c.79-.22,1.4-.99,1.57-1.98l.19-1.09c.17-.97,1.45-.97,1.63,0l.25,1.34c.15.83.68,1.48,1.35,1.66l1.48.4c.87.23.87,1.56,0,1.8Z"/>
      <path class="cls-8" d="M81.96,17.01l-1.48.41c-.67.19-1.19.84-1.34,1.68l-.23,1.33c-.17.96-1.46.97-1.63,0l-.2-1.08c-.18-.98-.8-1.74-1.6-1.96l-1.28-.35c-.87-.23-.88-1.56,0-1.8l1.28-.36c.79-.22,1.4-.99,1.58-1.97l.19-1.09c.17-.97,1.46-.97,1.63,0l.25,1.33c.15.83.68,1.47,1.35,1.65l1.49.4c.87.23.88,1.56,0,1.8Z"/>
      <path class="cls-8" d="M36.6,106.66l-1.47.42c-.67.19-1.19.84-1.34,1.68l-.23,1.33c-.17.97-1.45.97-1.63,0l-.2-1.08c-.18-.98-.8-1.75-1.59-1.96l-1.28-.35c-.87-.23-.87-1.56,0-1.8l1.28-.36c.79-.22,1.4-.99,1.57-1.98l.19-1.09c.17-.97,1.45-.97,1.63,0l.25,1.34c.15.83.68,1.48,1.35,1.66l1.48.4c.87.23.87,1.56,0,1.8Z"/>
    </g>
  </g>
</svg>