<?xml version="1.0" encoding="UTF-8"?>
<svg id="Camada_2" xmlns="http://www.w3.org/2000/svg" xmlns:xlink="http://www.w3.org/1999/xlink" viewBox="0 0 137.66 137.66">
  <defs>
    <style>
      .cls-1 {
        fill: #294092;
      }

      .cls-2 {
        fill: #fff;
      }

      .cls-3 {
        fill: #c2b3d7;
      }

      .cls-4 {
        fill: #2c3c52;
      }

      .cls-5, .cls-6 {
        fill: none;
      }

      .cls-7 {
        fill: #f2ab8f;
      }

      .cls-8 {
        fill: #e06ea1;
      }

      .cls-9 {
        fill: #8bbcfc;
        opacity: .43;
      }

      .cls-10 {
        fill: #efc825;
      }

      .cls-11 {
        fill: #e88d6d;
      }

      .cls-6 {
        stroke: #2e3e52;
        stroke-linecap: round;
        stroke-miterlimit: 10;
        stroke-width: 1.19px;
      }

      .cls-12 {
        clip-path: url(#clippath);
      }
    </style>
    <clipPath id="clippath">
      <circle class="cls-5" cx="68.83" cy="68.83" r="61.86" transform="translate(-13.66 120.51) rotate(-77.07)"/>
    </clipPath>
  </defs>
  <g id="OBJECTS">
    <g>
      <circle class="cls-1" cx="68.83" cy="68.83" r="68.83"/>
      <circle class="cls-10" cx="68.83" cy="68.83" r="61.86" transform="translate(-13.66 120.51) rotate(-77.07)"/>
      <g class="cls-12">
        <g>
          <path class="cls-8" d="M26.16,53.06s-4.05,39.48-6.5,53.2c0,0,2.18,2.18,10.68,3.85l3.45-9.08,1.25,11.16s45.13,2.22,64.51-3.33c19.38-5.54,16.73-6.92,16.73-6.92l-1.4-8.49,4.37,7.83c.09-.34,9.18-8.78,8.64-8.28-1.79,1.66-14.69-42.55-19.63-52.17"/>
          <ellipse class="cls-3" cx="71.04" cy="135.46" rx="46.74" ry="35.87"/>
          <path class="cls-7" d="M85.41,89.37l-3.56,13.06s-10.95,5.41-22.37,0l-3.32-8.5,29.25-4.57Z"/>
          <path class="cls-11" d="M57.76,98.03l-1.6-4.1,28.66-3.01-2.53,9.89c-8.49,1.11-16.74-.05-24.54-2.79Z"/>
          <g>
            <path class="cls-7" d="M108.64,63.04c-1.57,20.18-20.24,35.18-41.69,33.5-21.45-1.67-37.83-15.87-36.26-36.05,1.57-20.18,20.24-35.18,41.69-33.5,21.45,1.67,37.83,15.87,36.26,36.05Z"/>
            <path class="cls-8" d="M62.62,20.23c-4.78-.1-35.9.65-36.96,37.73-.05,1.57,1.32,2.84,2.88,2.61.47-.07,2.11,1.18,2.69.84,18.25-10.6,19.8-25.2,19.8-25.2.16.51,12.31,11.42,25.73,10.37,7.02-1.4,7.35-8.04,7.35-8.04,11.8,15.59,19.72,17.55,23.8,14.61,2.11-1.52,1.05-1.59,1.24-4,.9-11.48-7.27-21.13-14.03-25.99-9.25-6.66-22.68-7.49-31.31-3.21-.37.19-.78.29-1.2.28Z"/>
            <path class="cls-8" d="M63.22,24.27s-9.04-7.76-6.07-9.1c2.97-1.33,6.21,7.34,6.21,7.34,0,0,.47-10.54,3.02-10.93,2.56-.39,1.47,11.09-3.16,12.68Z"/>
            <path class="cls-8" d="M52.18,48.29s-10.41,4.8-8.96,8.28c1.44,3.47,15.1-2.68,16.78-5.43,1.68-2.74-2.43-6.38-7.82-2.85Z"/>
            <path class="cls-8" d="M85.88,47.2s10.98,3.3,10.04,6.94c-.94,3.64-15.33-.54-17.38-3.01-2.05-2.48,1.51-6.66,7.34-3.92Z"/>
            <path class="cls-6" d="M80.48,66.78c-.8-3.99,1.16-7.76,4.38-8.4,3.22-.65,6.48,2.07,7.28,6.06"/>
            <path class="cls-2" d="M63.99,64.45c-.12,4.93-4.21,8.83-9.14,8.71-4.93-.12-8.83-4.21-8.71-9.14.12-4.93,4.21-8.83,9.14-8.71,4.93.12,8.83,4.21,8.71,9.14Z"/>
            <path class="cls-4" d="M60.19,61.46c2.53,5.4-2.87,10.54-8.14,7.75-.92-.49-1.66-1.27-2.1-2.21-2.53-5.4,2.87-10.54,8.14-7.75.92.49,1.66,1.27,2.1,2.21Z"/>
            <path class="cls-11" d="M61.02,74.96c-.16,2.11-3.53,4.14-7.46,3.83-3.93-.31-6.22-2.49-6.05-4.6.16-2.11,2.76-3.91,6.69-3.61,3.93.31,6.98,2.27,6.82,4.38Z"/>
            <path class="cls-11" d="M82.1,73.16c.4,2.08,3.96,3.72,7.84,2.98,3.87-.74,5.9-3.16,5.51-5.24-.4-2.08-3.17-3.58-7.05-2.85-3.87.74-6.69,3.02-6.3,5.1Z"/>
            <path class="cls-7" d="M32.32,62.22s-5.11-4.73-10.25-.8c-5.14,3.93-3.49,14.63,3.11,15.41,6.6.78,9.37-6.2,9.37-6.2l-2.22-8.41Z"/>
            <path class="cls-11" d="M28.86,64.85s-3.36-2.56-6.19-.4c-2.83,2.16-1.92,8.06,1.71,8.48,3.63.43,5.16-3.42,5.16-3.42l-.68-4.67Z"/>
            <path class="cls-7" d="M105.61,55.73s4.23-5.54,9.96-2.55,5.95,13.82-.42,15.71c-6.37,1.9-10.3-4.5-10.3-4.5l.75-8.66Z"/>
            <path class="cls-11" d="M108.52,58.06s2.32-3.04,5.47-1.4c3.15,1.64,3.27,7.58-.23,8.62-3.49,1.04-5.65-2.47-5.65-2.47l.41-4.75Z"/>
            <g>
              <path class="cls-2" d="M69.03,73.7c-2.47-.4-4.19-1.47-4.33-1.56-.99-.63-1.32-2.12-.73-3.33.59-1.2,1.87-1.67,2.86-1.04.21.13,4.51,2.72,8.38-.29.99-.77,2.27-.48,2.87.64.6,1.12.28,2.66-.71,3.42-2.96,2.3-6,2.53-8.35,2.15Z"/>
              <path class="cls-9" d="M78.29,68.63c-.05-.17-.11-.34-.2-.5-.02-.03-.04-.06-.06-.09-5.92,5.04-12.74,1.9-14.19,1.13-.07.22-.12.45-.14.67.75.38,2.42,1.14,4.56,1.49,2.87.47,6.59.19,10.03-2.71Z"/>
            </g>
            <line class="cls-6" x1="90.35" y1="60.63" x2="93.49" y2="58.71"/>
            <line class="cls-6" x1="91.7" y1="63.55" x2="94.94" y2="62.22"/>
          </g>
        </g>
      </g>
    </g>
  </g>
</svg>