<?xml version="1.0" encoding="UTF-8"?>
<svg id="Camada_2" xmlns="http://www.w3.org/2000/svg" xmlns:xlink="http://www.w3.org/1999/xlink" viewBox="0 0 137.66 137.66">
  <defs>
    <style>
      .cls-1 {
        fill: #fff;
      }

      .cls-2 {
        fill: #e8cc31;
      }

      .cls-3 {
        fill: #2c3c52;
      }

      .cls-4 {
        fill: none;
      }

      .cls-5 {
        fill: #ea6868;
      }

      .cls-6 {
        fill: #8d7472;
      }

      .cls-7 {
        fill: #f6e1da;
      }

      .cls-8 {
        fill: #e06ea1;
      }

      .cls-9 {
        clip-path: url(#clippath);
      }

      .cls-10 {
        fill: #816169;
      }
    </style>
    <clipPath id="clippath">
      <circle class="cls-4" cx="68.83" cy="68.83" r="61.86" transform="translate(-13.66 120.51) rotate(-77.07)"/>
    </clipPath>
  </defs>
  <g id="OBJECTS">
    <g>
      <circle class="cls-5" cx="68.83" cy="68.83" r="68.83" transform="translate(-28.51 68.83) rotate(-45)"/>
      <circle class="cls-7" cx="68.83" cy="68.83" r="61.86" transform="translate(-13.66 120.51) rotate(-77.07)"/>
      <g class="cls-9">
        <g>
          <ellipse class="cls-8" cx="69.91" cy="147.26" rx="50.07" ry="38.81"/>
          <g>
            <path class="cls-3" d="M28.44,83.81c6.91,18.2,30.16,26.25,51.93,17.98,21.77-8.26,35.02-26.55,28.11-44.75-6.91-18.2-30.16-26.25-51.93-17.98-21.77,8.26-35.02,26.55-28.11,44.75Z"/>
            <path class="cls-6" d="M82.53,101.79l-3.07,11.27s-9.44,4.67-19.3,0l-2.86-7.33,25.23-3.94Z"/>
            <path class="cls-10" d="M58.68,109.26l-1.38-3.53,24.73-2.6-2.18,8.53c-7.33.96-14.45-.04-21.17-2.4Z"/>
            <path class="cls-6" d="M31.03,83.73c7.22,19.01,29.46,28.21,49.67,20.53s32-26,24.79-45.01c-7.22-19.01-29.46-28.21-49.67-20.53-20.21,7.67-32,26-24.79,45.01Z"/>
            <path class="cls-3" d="M87.69,30.57s11.12,24.17,17.52,29.61c.51.43,1.88-1.51,2.35-1.57,1.57-.21,2.53-1.82,2.04-3.33-11.5-35.46-41.72-27.4-46.3-25.95-.4.13-.82.14-1.23.07-9.53-1.69-34.54,3.21-38.71,13.87-5.66,14.48.04,22.76,4.15,33.59,0,0,18.02-10.8,23.25-36.76"/>
            <path class="cls-3" d="M47.66,49.28c14.69-5.18,26.98,5.96,41.72,2,14.74-3.96,23.76-16.54,18.08-26.79-5.26-9.49-13.94-3.59-13.94-3.59,1.96-5.64-5.22-12.7-11.96-6.67,0,0-1.75-8.1-11.6-4.94-9.85,3.16-10.15,17.85-12.27,17.59-12.1-1.48-16.61,4.7-16.61,4.7,0,0-20.25-.1-19.83,18.28.41,17.7,17.96,2.38,26.4-.6Z"/>
            <path class="cls-3" d="M83.59,53.2s11.17,2.81,10.39,6.51c-.78,3.7-15.42.16-17.59-2.24-2.17-2.39,1.21-6.76,7.19-4.27Z"/>
            <path class="cls-3" d="M49,59.28s-9.66,6.28-7.72,9.52c1.94,3.24,14.64-4.85,15.91-7.82,1.27-2.97-3.34-6-8.19-1.71Z"/>
            <path class="cls-1" d="M74.49,72.48c1.51,4.72,6.56,7.32,11.28,5.81,4.72-1.51,7.32-6.56,5.81-11.28-1.51-4.72-6.56-7.32-11.28-5.81-4.72,1.51-7.32,6.56-5.81,11.28Z"/>
            <path class="cls-3" d="M77.31,68.52c-.91,5.92,5.75,9.36,10.04,5.18.75-.73,1.24-1.69,1.4-2.72.91-5.92-5.75-9.36-10.04-5.18-.75.73-1.24,1.69-1.4,2.72Z"/>
            <path class="cls-10" d="M80.33,81.77c.75,1.99,4.57,2.99,8.28,1.59,3.7-1.41,5.29-4.16,4.54-6.15-.75-1.99-3.77-2.99-7.47-1.59-3.7,1.41-6.1,4.16-5.34,6.15Z"/>
            <path class="cls-1" d="M62.87,74.83c.45,4.93-3.19,9.3-8.12,9.75-4.93.45-9.3-3.19-9.75-8.12-.45-4.93,3.19-9.3,8.12-9.75,4.93-.45,9.3,3.19,9.75,8.12Z"/>
            <path class="cls-3" d="M58.72,72.29c3.15,5.1-1.65,10.86-7.23,8.68-.97-.38-1.8-1.07-2.35-1.96-3.15-5.1,1.65-10.86,7.23-8.68.97.38,1.8,1.07,2.35,1.96Z"/>
            <path class="cls-10" d="M61.11,85.67c.08,2.13-3.05,4.54-7.01,4.69-3.96.15-6.49-1.77-6.57-3.89-.08-2.13,2.3-4.23,6.26-4.37,3.96-.15,7.23,1.46,7.31,3.58Z"/>
            <path class="cls-6" d="M104.41,61.38s3.6-6.01,9.66-3.67c6.07,2.34,7.5,13.13,1.36,15.74-6.14,2.61-10.79-3.34-10.79-3.34l-.23-8.74Z"/>
            <path class="cls-10" d="M108.49,62.94s2.52-3.42,5.85-2.13c3.34,1.29,4.13,7.23.75,8.66s-5.94-1.84-5.94-1.84l-.66-4.69Z"/>
            <path class="cls-6" d="M31.89,75.82s-5.64-4.15-10.33.36c-4.69,4.5-1.84,15.01,4.84,15.04s8.66-7.25,8.66-7.25l-3.17-8.14Z"/>
            <path class="cls-10" d="M29.75,78.9s-3.1-2.28-5.67.2c-2.57,2.47-1.01,8.24,2.66,8.25s4.75-3.98,4.75-3.98l-1.74-4.47Z"/>
            <path class="cls-3" d="M62.37,77.58c5.36-2.6,12.97-2.41,12.97-2.41,0,0,.36,1.96-.09,4.08-4.16-.73-8.57-.15-11.99,1.89-.83-1.77-.89-3.56-.89-3.56Z"/>
            <path class="cls-5" d="M75.24,79.25c-.46,2.16-1.77,4.49-5.17,5.13-3.95.73-5.88-1.23-6.82-3.23,3.41-2.04,7.82-2.63,11.99-1.89Z"/>
          </g>
        </g>
      </g>
      <g>
        <path class="cls-2" d="M112.19,102.15l-4.07,1.15c-1.02.29-1.8,1.24-2,2.43l-.73,4.4c-.14.85-1.35.88-1.54.04l-.88-4.02c-.3-1.39-1.28-2.46-2.5-2.74l-3.82-.88c-.84-.19-.87-1.39-.04-1.62l3.78-1.07c1.2-.34,2.12-1.46,2.35-2.86l.68-4.06c.14-.85,1.35-.88,1.54-.04l.95,4.37c.26,1.18,1.08,2.08,2.11,2.32l4.13.95c.84.19.87,1.38.04,1.62Z"/>
        <path class="cls-2" d="M20.53,67.73l-3.02.85c-.76.21-1.34.92-1.48,1.8l-.54,3.26c-.11.63-1,.65-1.14.03l-.65-2.98c-.22-1.03-.95-1.83-1.85-2.03l-2.83-.65c-.63-.14-.65-1.03-.03-1.2l2.8-.79c.89-.25,1.57-1.08,1.74-2.12l.5-3.01c.11-.63,1-.65,1.14-.03l.71,3.24c.19.87.8,1.54,1.56,1.72l3.06.71c.63.14.65,1.03.03,1.2Z"/>
        <path class="cls-2" d="M120.95,88.24l-1.47.42c-.67.19-1.19.84-1.34,1.68l-.23,1.33c-.17.97-1.45.97-1.63,0l-.2-1.08c-.18-.98-.8-1.75-1.59-1.96l-1.28-.35c-.87-.23-.87-1.56,0-1.8l1.28-.36c.79-.22,1.4-.99,1.57-1.98l.19-1.09c.17-.97,1.45-.97,1.63,0l.25,1.34c.15.83.68,1.48,1.35,1.66l1.48.4c.87.23.87,1.56,0,1.8Z"/>
        <path class="cls-2" d="M33.12,102.41l-1.47.42c-.67.19-1.19.84-1.34,1.68l-.23,1.33c-.17.97-1.45.97-1.63,0l-.2-1.09c-.18-.98-.8-1.75-1.59-1.96l-1.28-.35c-.87-.23-.87-1.56,0-1.8l1.28-.36c.79-.22,1.4-.99,1.57-1.98l.19-1.09c.17-.97,1.45-.97,1.63,0l.25,1.34c.15.83.68,1.48,1.35,1.66l1.48.4c.87.23.87,1.56,0,1.8Z"/>
        <path class="cls-2" d="M120.18,47.45l-1.82.51c-.83.23-1.48,1.05-1.66,2.08l-.28,1.65c-.21,1.2-1.8,1.21-2.02.01l-.25-1.35c-.22-1.22-.99-2.17-1.98-2.43l-1.59-.43c-1.07-.29-1.08-1.93-.01-2.24l1.58-.45c.98-.28,1.74-1.23,1.95-2.45l.23-1.35c.21-1.2,1.8-1.21,2.02-.01l.3,1.66c.19,1.03.84,1.83,1.67,2.05l1.84.5c1.07.29,1.08,1.93.01,2.24Z"/>
      </g>
    </g>
  </g>
</svg>